<svg width="29" height="29" viewBox="0 0 29 29" fill="none" xmlns="http://www.w3.org/2000/svg">
<path d="M25.375 13.2917V10.875H22.9583V8.45833C22.9564 7.81798 22.7012 7.2044 22.2484 6.7516C21.7956 6.29881 21.182 6.04358 20.5417 6.04167H18.125V3.625H15.7083V6.04167H13.2917V3.625H10.875V6.04167H8.45833C7.81798 6.04358 7.2044 6.29881 6.7516 6.7516C6.29881 7.2044 6.04358 7.81798 6.04167 8.45833V10.875H3.625V13.2917H6.04167V15.7083H3.625V18.125H6.04167V20.5417C6.04358 21.182 6.29881 21.7956 6.7516 22.2484C7.2044 22.7012 7.81798 22.9564 8.45833 22.9583H10.875V25.375H13.2917V22.9583H15.7083V25.375H18.125V22.9583H20.5417C21.182 22.9564 21.7956 22.7012 22.2484 22.2484C22.7012 21.7956 22.9564 21.182 22.9583 20.5417V18.125H25.375V15.7083H22.9583V13.2917H25.375ZM20.5417 20.5417H8.45833V8.45833H20.5417V20.5417Z" fill="#20CCBB"/>
<path d="M13.7279 9.66663H12.1027L9.67392 19.3333H10.9149L11.4755 17.0677H14.274L14.8202 19.3333H16.1035L13.7279 9.66663ZM11.6387 16.0998L12.8688 10.8145H12.9243L14.1121 16.0998H11.6387ZM17.2115 9.66663H18.4198V19.3333H17.2115V9.66663Z" fill="#20CCBB"/>
</svg>
