<svg width="26" height="26" viewBox="0 0 26 26" fill="none" xmlns="http://www.w3.org/2000/svg">
<path d="M8.125 9.74996H9.75V11.375H8.125V9.74996ZM14.625 9.74996H16.25V11.375H14.625V9.74996ZM20.5791 17.875C20.8753 17.875 21.1546 17.93 21.417 18.04C21.6794 18.15 21.9079 18.3066 22.1025 18.5097C22.2972 18.7128 22.4538 18.9456 22.5723 19.208C22.6908 19.4703 22.75 19.7496 22.75 20.0459V26H21.125V20.0459C21.125 19.8935 21.0742 19.7666 20.9727 19.665C20.8711 19.5634 20.7399 19.5084 20.5791 19.5H3.7959C3.64355 19.5 3.5166 19.5507 3.41504 19.6523C3.31348 19.7539 3.25846 19.885 3.25 20.0459V26H1.625V20.0459C1.625 19.7496 1.68001 19.4703 1.79004 19.208C1.90007 18.9456 2.05664 18.7171 2.25977 18.5224C2.46289 18.3278 2.69141 18.1712 2.94531 18.0527C3.19922 17.9342 3.48275 17.875 3.7959 17.875H8.125V16.25H7.0459C6.74967 16.25 6.47038 16.1949 6.20801 16.0849C5.94564 15.9749 5.71289 15.8183 5.50977 15.6152C5.30664 15.4121 5.1543 15.1836 5.05273 14.9296C4.95117 14.6757 4.89193 14.3922 4.875 14.0791V13H3.25V9.74996H4.875V8.67086C4.875 8.37463 4.93001 8.09534 5.04004 7.83297C5.15007 7.5706 5.30664 7.34208 5.50977 7.14742C5.71289 6.95276 5.94141 6.79618 6.19531 6.67769C6.44922 6.5592 6.73275 6.49996 7.0459 6.49996H11.375V3.84664C11.1296 3.70276 10.9349 3.50387 10.791 3.24996C10.6471 2.99605 10.571 2.72522 10.5625 2.43746C10.5625 2.20894 10.6048 1.99736 10.6895 1.80269C10.7741 1.60803 10.8883 1.43876 11.0322 1.29488C11.1761 1.151 11.3496 1.03251 11.5527 0.939412C11.7559 0.846313 11.9674 0.803996 12.1875 0.812459C12.416 0.812459 12.6276 0.854777 12.8223 0.939412C13.0169 1.02405 13.1862 1.13831 13.3301 1.28219C13.474 1.42607 13.5924 1.59957 13.6855 1.80269C13.7786 2.00582 13.821 2.21741 13.8125 2.43746C13.8125 2.72522 13.7406 2.99605 13.5967 3.24996C13.4528 3.50387 13.2539 3.70276 13 3.84664V6.49996H17.3291C17.6253 6.49996 17.9046 6.55497 18.167 6.665C18.4294 6.77502 18.6579 6.9316 18.8525 7.13472C19.0472 7.33785 19.2038 7.5706 19.3223 7.83297C19.4408 8.09534 19.5 8.37463 19.5 8.67086V9.74996H21.125V13H19.5V14.0791C19.5 14.3753 19.445 14.6546 19.335 14.917C19.2249 15.1793 19.0684 15.4121 18.8652 15.6152C18.6621 15.8183 18.4294 15.9707 18.167 16.0722C17.9046 16.1738 17.6253 16.233 17.3291 16.25H16.25V17.875H20.5791ZM6.5 14.0791C6.5 14.2314 6.55078 14.3584 6.65234 14.4599C6.75391 14.5615 6.88509 14.6165 7.0459 14.625H17.3291C17.4814 14.625 17.6084 14.5742 17.71 14.4726C17.8115 14.3711 17.8665 14.2399 17.875 14.0791V8.67086C17.875 8.51851 17.8242 8.39156 17.7227 8.29C17.6211 8.18844 17.4899 8.13342 17.3291 8.12496H7.0459C6.89355 8.12496 6.7666 8.17574 6.66504 8.2773C6.56348 8.37886 6.50846 8.51005 6.5 8.67086V14.0791ZM9.75 17.875H14.625V16.25H9.75V17.875Z" fill="#2550B4"/>
</svg>
