<svg width="28" height="28" viewBox="0 0 28 28" fill="none" xmlns="http://www.w3.org/2000/svg">
<path d="M22.4 5.58737C22.4001 6.03291 22.2939 6.47206 22.0902 6.86831C21.8865 7.26456 21.5912 7.60648 21.2288 7.86565C20.8664 8.12483 20.4473 8.29378 20.0065 8.35846C19.5657 8.42315 19.1158 8.3817 18.6942 8.23757L16.8966 10.9578C17.696 11.7194 18.1958 12.7932 18.2 13.9846L19.838 14.2674C20.113 13.6438 20.606 13.142 21.2246 12.856C21.8431 12.5699 22.5448 12.5193 23.198 12.7135C23.8512 12.9078 24.4111 13.3336 24.7729 13.9112C25.1346 14.4887 25.2733 15.1784 25.1629 15.8509C25.0525 16.5234 24.7007 17.1325 24.1733 17.5641C23.6459 17.9958 22.9792 18.2203 22.2982 18.1955C21.6172 18.1708 20.9685 17.8985 20.4739 17.4297C19.9792 16.961 19.6725 16.3279 19.6112 15.6492L17.9732 15.365C17.6268 16.3695 16.9138 17.206 15.9768 17.7072L16.5984 19.607C17.2781 19.558 17.9524 19.7587 18.4948 20.1713C19.0371 20.5839 19.4104 21.1802 19.5446 21.8483C19.6788 22.5165 19.5647 23.2106 19.2238 23.8007C18.8828 24.3907 18.3383 24.8362 17.6924 25.0535C17.0465 25.2709 16.3435 25.2452 15.7152 24.9813C15.0869 24.7174 14.5764 24.2334 14.2794 23.6201C13.9823 23.0067 13.9192 22.3061 14.1018 21.6495C14.2844 20.993 14.7002 20.4255 15.2712 20.0536L14.6482 18.1496C13.8906 18.2683 13.1149 18.1771 12.4055 17.8859C11.6961 17.5946 11.0802 17.1144 10.6246 16.4976L8.33561 17.6008C8.4819 18.2664 8.3804 18.9625 8.05016 19.5586C7.71991 20.1548 7.18358 20.61 6.5417 20.839C5.89982 21.068 5.19646 21.055 4.56346 20.8025C3.93046 20.55 3.41128 20.0753 3.10324 19.4674C2.79519 18.8595 2.71943 18.1601 2.89016 17.5004C3.06089 16.8406 3.46638 16.2657 4.03064 15.8835C4.59489 15.5014 5.27915 15.3381 5.95518 15.4243C6.6312 15.5105 7.25257 15.8404 7.70281 16.352L9.98901 15.2502C9.77196 14.5538 9.74006 13.813 9.89643 13.1006C10.0528 12.3882 10.3921 11.7288 10.8808 11.1874L9.57181 9.54377C8.95275 9.82875 8.25101 9.87817 7.59813 9.68277C6.94524 9.48737 6.38603 9.06056 6.02532 8.48235C5.6646 7.90414 5.52715 7.21422 5.63873 6.54192C5.7503 5.86961 6.10324 5.26108 6.63139 4.83038C7.15954 4.39969 7.82664 4.17639 8.50764 4.20236C9.18865 4.22833 9.8368 4.50178 10.3306 4.97145C10.8244 5.44112 11.13 6.07476 11.1901 6.75361C11.2501 7.43246 11.0605 8.10991 10.6568 8.65897L11.9784 10.318C12.5975 9.97683 13.2931 9.79859 14 9.79997C14.6188 9.79997 15.2068 9.93297 15.736 10.1738L17.5252 7.46757C17.22 7.13072 17.0013 6.72462 16.8881 6.28435C16.775 5.84407 16.7707 5.38287 16.8757 4.94058C16.9807 4.49829 17.1918 4.08822 17.4908 3.74579C17.7898 3.40336 18.1677 3.13888 18.5918 2.97519C19.0158 2.8115 19.4734 2.75352 19.9249 2.80627C20.3764 2.85902 20.8083 3.02091 21.1832 3.27795C21.5582 3.53498 21.8649 3.87945 22.0769 4.28157C22.2889 4.68369 22.3998 5.13279 22.4 5.58737ZM21 5.58737C21 5.21606 20.8525 4.85997 20.59 4.59742C20.3274 4.33487 19.9713 4.18737 19.6 4.18737C19.2287 4.18737 18.8726 4.33487 18.6101 4.59742C18.3475 4.85997 18.2 5.21606 18.2 5.58737C18.2 5.95867 18.3475 6.31477 18.6101 6.57732C18.8726 6.83987 19.2287 6.98737 19.6 6.98737C19.9713 6.98737 20.3274 6.83987 20.59 6.57732C20.8525 6.31477 21 5.95867 21 5.58737ZM8.40001 8.39997C8.77131 8.39997 9.12741 8.25247 9.38996 7.98992C9.65251 7.72737 9.80001 7.37127 9.80001 6.99997C9.80001 6.62866 9.65251 6.27257 9.38996 6.01002C9.12741 5.74747 8.77131 5.59997 8.40001 5.59997C8.02871 5.59997 7.67261 5.74747 7.41006 6.01002C7.14751 6.27257 7.00001 6.62866 7.00001 6.99997C7.00001 7.37127 7.14751 7.72737 7.41006 7.98992C7.67261 8.25247 8.02871 8.39997 8.40001 8.39997ZM14 16.8C14.7426 16.8 15.4548 16.505 15.9799 15.9799C16.505 15.4548 16.8 14.7426 16.8 14C16.8 13.2574 16.505 12.5452 15.9799 12.0201C15.4548 11.495 14.7426 11.2 14 11.2C13.2574 11.2 12.5452 11.495 12.0201 12.0201C11.495 12.5452 11.2 13.2574 11.2 14C11.2 14.7426 11.495 15.4548 12.0201 15.9799C12.5452 16.505 13.2574 16.8 14 16.8ZM7.00001 18.2C7.00001 17.8287 6.85251 17.4726 6.58996 17.21C6.32741 16.9475 5.97131 16.8 5.60001 16.8C5.22871 16.8 4.87261 16.9475 4.61006 17.21C4.34751 17.4726 4.20001 17.8287 4.20001 18.2C4.20001 18.5713 4.34751 18.9274 4.61006 19.1899C4.87261 19.4525 5.22871 19.6 5.60001 19.6C5.97131 19.6 6.32741 19.4525 6.58996 19.1899C6.85251 18.9274 7.00001 18.5713 7.00001 18.2ZM18.2 22.4C18.2 22.0287 18.0525 21.6726 17.79 21.41C17.5274 21.1475 17.1713 21 16.8 21C16.4287 21 16.0726 21.1475 15.8101 21.41C15.5475 21.6726 15.4 22.0287 15.4 22.4C15.4 22.7713 15.5475 23.1274 15.8101 23.3899C16.0726 23.6525 16.4287 23.8 16.8 23.8C17.1713 23.8 17.5274 23.6525 17.79 23.3899C18.0525 23.1274 18.2 22.7713 18.2 22.4ZM22.4 16.8C22.7713 16.8 23.1274 16.6525 23.39 16.3899C23.6525 16.1274 23.8 15.7713 23.8 15.4C23.8 15.0287 23.6525 14.6726 23.39 14.41C23.1274 14.1475 22.7713 14 22.4 14C22.0287 14 21.6726 14.1475 21.4101 14.41C21.1475 14.6726 21 15.0287 21 15.4C21 15.7713 21.1475 16.1274 21.4101 16.3899C21.6726 16.6525 22.0287 16.8 22.4 16.8Z" fill="#AB33BE"/>
</svg>
