<svg width="256" height="256" viewBox="0 0 256 256" fill="none" xmlns="http://www.w3.org/2000/svg">
<path d="M128 28C108.222 28 88.8879 33.8649 72.443 44.853C55.9981 55.8412 43.1809 71.459 35.6121 89.7317C28.0433 108.004 26.063 128.111 29.9215 147.509C33.78 166.907 43.3041 184.725 57.2894 198.711C71.2746 212.696 89.0929 222.22 108.491 226.079C127.889 229.937 147.996 227.957 166.268 220.388C184.541 212.819 200.159 200.002 211.147 183.557C222.135 167.112 228 147.778 228 128C227.971 101.487 217.426 76.0688 198.679 57.3215C179.931 38.5742 154.513 28.0291 128 28ZM215.64 156H169.49C172.837 137.483 172.837 118.517 169.49 100H215.64C221.453 118.214 221.453 137.786 215.64 156ZM128 220C127.477 220 126.959 219.89 126.48 219.678C126.001 219.467 125.572 219.157 125.22 218.77C111.57 204.07 101.7 185.05 96.41 164H159.59C154.3 185.05 144.43 204.07 130.78 218.77C130.428 219.157 129.999 219.467 129.52 219.678C129.041 219.89 128.524 220 128 220ZM94.65 156C91.1167 137.501 91.1167 118.499 94.65 100H161.35C164.883 118.499 164.883 137.501 161.35 156H94.65ZM128 36C128.524 36.0002 129.041 36.1097 129.52 36.3215C129.999 36.5333 130.428 36.8428 130.78 37.23C144.43 51.93 154.3 71 159.59 92H96.41C101.7 71 111.57 51.93 125.22 37.23C125.572 36.8428 126.001 36.5333 126.48 36.3215C126.959 36.1097 127.477 36.0002 128 36ZM212.66 92H167.81C162.9 71.27 153.81 52.28 141.15 36.94C156.786 39.2284 171.573 45.493 184.094 55.1337C196.615 64.7745 206.451 77.4685 212.66 92ZM114.85 36.94C102.22 52.28 93.1 71.27 88.19 92H43.34C49.5493 77.4685 59.3854 64.7745 71.9065 55.1337C84.4275 45.493 99.2141 39.2284 114.85 36.94ZM40.36 100H86.51C83.1634 118.517 83.1634 137.483 86.51 156H40.36C34.5468 137.786 34.5468 118.214 40.36 100ZM43.36 164H88.19C93.1 184.73 102.19 203.72 114.85 219.06C99.2141 216.772 84.4275 210.507 71.9065 200.866C59.3854 191.226 49.5493 178.532 43.34 164H43.36ZM141.17 219.06C153.8 203.72 162.92 184.73 167.83 164H212.68C206.469 178.534 196.63 191.23 184.105 200.871C171.58 210.512 156.79 216.775 141.15 219.06H141.17Z" fill="#3A3A3A"/>
</svg>
