<svg width="27" height="27" viewBox="0 0 27 27" fill="none" xmlns="http://www.w3.org/2000/svg">
<path d="M16.875 22.7813H7.59375C5.80354 22.7813 4.08665 22.0701 2.82078 20.8042C1.55491 19.5384 0.84375 17.8215 0.84375 16.0313C0.84375 14.241 1.55491 12.5241 2.82078 11.2583C4.08665 9.99241 5.80354 9.28125 7.59375 9.28125C7.92215 9.27958 8.25016 9.30427 8.57461 9.35508C9.31293 7.87587 10.433 6.62072 11.8189 5.7194C13.2048 4.81808 14.8063 4.30331 16.4579 4.22831C18.1094 4.15331 19.751 4.52081 21.2129 5.2928C22.6748 6.0648 23.904 7.21327 24.7733 8.61947C25.6427 10.0257 26.1206 11.6386 26.1578 13.2914C26.195 14.9442 25.79 16.5769 24.9847 18.0208C24.1794 19.4646 23.0031 20.6672 21.5774 21.5041C20.1516 22.341 18.5282 22.7819 16.875 22.7813ZM7.59375 10.9688C6.25109 10.9688 4.96343 11.5021 4.01402 12.4515C3.06462 13.4009 2.53125 14.6886 2.53125 16.0313C2.53125 17.3739 3.06462 18.6616 4.01402 19.611C4.96343 20.5604 6.25109 21.0938 7.59375 21.0938H16.875C18.3769 21.0938 19.8451 20.6484 21.0939 19.814C22.3426 18.9796 23.316 17.7936 23.8907 16.406C24.4655 15.0184 24.6158 13.4916 24.3228 12.0185C24.0298 10.5455 23.3066 9.19241 22.2446 8.13041C21.1826 7.0684 19.8295 6.34517 18.3565 6.05216C16.8834 5.75916 15.3566 5.90954 13.969 6.48429C12.5814 7.05904 11.3954 8.03235 10.561 9.28114C9.72662 10.5299 9.28125 11.9981 9.28125 13.5C9.28125 13.7238 9.19236 13.9384 9.03412 14.0966C8.87589 14.2549 8.66128 14.3438 8.4375 14.3438C8.21372 14.3438 7.99911 14.2549 7.84088 14.0966C7.68265 13.9384 7.59375 13.7238 7.59375 13.5C7.59032 12.6476 7.7075 11.7989 7.9418 10.9793L7.59375 10.9688Z" fill="#1E80FF"/>
</svg>
